<?xml version="1.0" standalone="no"?>
<!DOCTYPE svg PUBLIC "-//W3C//DTD SVG 20010904//EN"
 "http://www.w3.org/TR/2001/REC-SVG-20010904/DTD/svg10.dtd">
<svg version="1.0" xmlns="http://www.w3.org/2000/svg"
 width="512.000000pt" height="512.000000pt" viewBox="0 0 512.000000 512.000000"
 preserveAspectRatio="xMidYMid meet">

<g transform="translate(0.000000,512.000000) scale(0.100000,-0.100000)"
fill="#000000" stroke="none">
<path d="M385 5101 c-16 -10 -108 -97 -203 -193 -157 -160 -172 -178 -172
-211 0 -27 40 -104 176 -343 97 -170 181 -315 188 -322 7 -7 90 -32 186 -57
l174 -44 546 -546 545 -545 60 60 60 60 -560 560 -560 560 -65 20 c-36 10
-112 31 -170 45 l-105 27 -140 246 c-77 135 -141 250 -143 256 -1 6 53 66 120
133 l123 122 256 -146 256 -147 38 -160 39 -161 565 -568 566 -567 60 60 60
60 -547 548 -547 547 -42 167 c-23 92 -46 174 -53 182 -17 23 -638 376 -661
376 -11 0 -33 -8 -50 -19z"/>
<path d="M3956 5110 c-529 -84 -899 -533 -873 -1059 3 -64 8 -125 12 -136 5
-16 -166 -191 -928 -953 l-934 -934 -104 11 c-435 43 -841 -190 -1029 -591
-70 -150 -85 -227 -84 -433 0 -166 3 -187 28 -270 115 -380 405 -647 788 -725
528 -108 1051 222 1189 752 25 95 36 300 21 388 l-9 55 226 227 225 228 112
-110 c132 -131 142 -134 223 -65 65 55 112 61 155 19 42 -42 36 -88 -19 -153
-80 -94 -122 -40 523 -681 510 -509 574 -569 638 -603 199 -104 451 -104 647
0 104 55 231 183 284 288 57 112 73 180 73 320 0 140 -16 208 -72 320 -39 76
-66 105 -604 645 -534 535 -565 564 -598 564 -28 0 -45 -8 -74 -37 -52 -51
-91 -63 -135 -42 -36 17 -57 50 -57 90 0 15 18 45 45 75 36 41 45 58 45 88 0
33 -10 46 -107 144 l-108 108 226 226 225 225 90 -12 c178 -23 384 13 559 100
267 132 447 350 537 651 40 133 35 448 -9 533 -16 33 -57 51 -93 42 -15 -4
-138 -119 -300 -280 l-275 -273 -209 72 -210 71 -69 209 -69 208 276 277 c259
260 276 279 276 313 0 52 -26 77 -95 94 -75 18 -281 26 -359 14z m-39 -398
c-219 -219 -237 -240 -237 -272 0 -54 168 -549 195 -574 13 -12 135 -58 292
-110 210 -70 275 -88 298 -82 21 5 102 79 256 233 125 124 229 221 232 216 9
-15 -9 -182 -28 -252 -75 -291 -311 -523 -610 -602 -97 -25 -254 -30 -371 -10
-71 11 -85 11 -110 -2 -41 -22 -1961 -1947 -1972 -1977 -7 -17 -5 -49 4 -95 7
-39 13 -114 14 -167 1 -417 -290 -767 -705 -845 -105 -20 -283 -13 -380 16
-281 83 -492 285 -586 561 -29 85 -33 110 -37 235 -3 117 -1 154 17 228 93
389 434 660 831 659 58 -1 129 -6 159 -11 115 -23 12 -114 1099 972 541 540
988 993 993 1006 6 15 4 51 -7 110 -19 102 -14 261 12 361 95 368 430 632 809
639 l70 1 -238 -238z m-474 -2369 c-16 -27 -27 -65 -30 -102 -19 -211 198
-356 387 -258 l47 25 494 -494 494 -494 -365 -365 -365 -365 -494 494 -494
494 27 53 c51 104 26 245 -57 315 -86 73 -205 88 -299 40 l-52 -27 -69 69 -69
69 369 361 368 362 67 -67 67 -66 -26 -44z m1498 -1535 c29 -117 6 -270 -57
-381 -37 -67 -130 -157 -200 -194 -115 -61 -267 -78 -388 -43 l-39 12 329 329
c181 181 332 329 335 329 4 0 13 -24 20 -52z"/>
<path d="M2505 2620 l-940 -940 60 -60 60 -60 940 940 940 940 -60 60 -60 60
-940 -940z"/>
<path d="M722 1513 c-27 -24 -282 -449 -288 -482 -4 -21 24 -75 136 -262 96
-161 150 -240 166 -248 17 -7 118 -11 299 -11 l275 0 29 28 c47 44 285 451
285 487 -1 33 -248 456 -286 488 -18 15 -48 17 -308 17 -260 0 -290 -2 -308
-17z m618 -322 l102 -170 -102 -170 -103 -171 -207 0 -207 0 -102 169 c-55 93
-101 172 -101 175 0 4 148 254 186 314 14 22 18 22 224 22 l209 0 101 -169z"/>
<path d="M3505 1620 l-60 -60 428 -428 427 -427 60 60 60 60 -428 428 -427
427 -60 -60z"/>
</g>
</svg>
